<svg width="16" height="11" viewBox="0 0 16 11" fill="none" xmlns="http://www.w3.org/2000/svg">
<path d="M7.5 0H12.2197C13.849 0 15.1726 1.32278 15.1726 2.95295V3.06496C15.1726 4.69432 13.8498 6.01792 12.2197 6.01792H7.5V0.000815843V0Z" fill="#E77B35"/>
<path d="M5.13672 2.50806L5.98125 5.06041L6.66551 7.36505L7.1315 8.98463L7.92042 9.2585C7.92042 9.2585 10.2929 10.1251 9.76806 8.34614C9.24322 6.56634 11.9812 6.45188 11.776 6.29246C11.5708 6.13304 11.0459 5.33428 11.023 5.2656C11.0001 5.19697 9.7452 2.80156 9.7452 2.80156L8.76415 2.04861C8.76415 2.04861 7.81331 1.54664 7.49042 1.47796C7.16748 1.40929 6.80202 1.3864 6.6426 1.3864C6.48318 1.3864 5.91257 1.29483 5.75315 1.3864C5.59372 1.47796 5.27403 1.81969 5.27403 1.81969L5.13752 2.50724L5.13672 2.50806Z" fill="white"/>
<path d="M13.5913 5.87812C13.5585 5.83479 12.9446 5.06633 11.8712 4.75402C11.5335 4.66572 11.186 4.65264 10.8386 4.66C10.8067 4.66 10.7748 4.65591 10.7192 4.65182C12.1295 3.8956 12.356 2.32919 11.818 1.35059C11.6635 1.07181 11.4624 0.821644 11.4411 0.798753C10.9391 0.259994 10.3195 -0.00243559 9.58284 1.7031e-05C8.42356 0.00410473 7.26428 0.00410613 6.10504 0.00655875C4.92285 0.00819381 3.73988 0.00982863 2.55772 0.0139163C2.48823 0.0139163 2.41056 0.0245442 2.3517 0.0572457C2.22335 0.127554 2.1792 0.268171 2.21926 0.412876C2.25441 0.540413 2.36478 0.622984 2.51194 0.623803C2.96731 0.626254 3.42268 0.627072 3.87805 0.628704C3.91729 0.628704 3.95735 0.628704 3.99496 0.636062C4.08243 0.654869 4.13966 0.710462 4.15683 0.797935C4.174 0.884594 4.1372 0.95572 4.06281 0.99578C4.01703 1.02031 3.95817 1.03175 3.90502 1.03175C3.17169 1.03502 2.43754 1.03502 1.70421 1.03584C1.56032 1.03584 1.44341 1.11923 1.40335 1.23941C1.33632 1.43889 1.47448 1.649 1.7132 1.64654C2.38113 1.64082 3.04988 1.64654 3.71781 1.649C4.08815 1.64981 4.45768 1.65145 4.82802 1.6539C4.97272 1.65472 5.06021 1.72993 5.06186 1.84929C5.06346 1.97683 4.98829 2.04223 4.8354 2.04305C4.12495 2.04714 3.4145 2.05041 2.70324 2.05613C2.63538 2.05613 2.56508 2.06185 2.49886 2.07821C2.38031 2.10763 2.29284 2.23599 2.29202 2.36598C2.29202 2.50578 2.36069 2.60634 2.49477 2.63903C2.58552 2.66111 2.68035 2.67419 2.77355 2.67746C2.94033 2.68401 3.10793 2.67419 3.2747 2.68237C3.3352 2.68564 3.37362 2.693 3.42349 2.72815L3.46682 2.76085C3.49789 2.80336 3.51097 2.86304 3.50607 2.91782C3.45865 3.04618 3.36382 3.07969 3.23546 3.07969C2.28221 3.07887 1.32896 3.08132 0.376522 3.08296C0.343821 3.08296 0.311118 3.08214 0.278417 3.08542C0.074849 3.10831 -0.0069045 3.26936 0.000453377 3.39608C0.00944633 3.54487 0.0993762 3.69121 0.312754 3.69203C0.709262 3.69366 1.10495 3.69285 1.50146 3.69366C1.77615 3.69366 2.05166 3.69693 2.32636 3.69693C2.41629 3.69693 2.48741 3.73045 2.52502 3.81302C2.59042 3.96018 2.49641 4.09916 2.33126 4.1008C2.00997 4.10243 1.68949 4.1008 1.3682 4.10326C1.19815 4.10407 1.05999 4.22425 1.05017 4.37304C1.03709 4.58233 1.15073 4.7066 1.36248 4.70905C1.77861 4.71314 2.19473 4.71968 2.61004 4.7115C2.6967 4.70985 2.79317 4.66327 2.86675 4.61258C2.94196 4.56026 3.00083 4.48095 3.05642 4.40656C3.27388 4.1147 3.48317 3.81629 3.70309 3.52607C3.90094 3.26527 4.14293 3.05271 4.44951 2.92681C4.8354 2.76903 5.2409 2.70935 5.65538 2.70526C5.93334 2.7028 6.21211 2.70771 6.49092 2.70526C6.5604 2.70526 6.63153 2.69463 6.70021 2.68073C6.77787 2.6652 6.83427 2.59489 6.83098 2.5164C6.82444 2.37416 6.70265 2.26951 6.53095 2.26706C6.28897 2.26379 6.04615 2.26706 5.80417 2.26706C5.68972 2.26706 5.59159 2.22863 5.52949 2.12807C5.39538 1.91143 5.56054 1.65309 5.83362 1.68415C6.1876 1.72503 6.54403 1.72503 6.89806 1.68497C7.19235 1.65227 7.41227 1.75609 7.53735 1.99727C7.66408 2.24253 7.77279 2.49679 7.89054 2.74695C7.96985 2.91536 8.04916 3.08378 8.13496 3.26772C8.15622 3.22031 8.1685 3.19088 8.18158 3.16145C8.26004 2.98649 8.33526 2.80991 8.41787 2.63659C8.46199 2.5442 8.53886 2.49924 8.64757 2.50251C8.80454 2.50741 8.89204 2.60552 8.95004 2.72978C9.14874 3.14918 9.34251 3.57185 9.53298 3.99534C9.59676 4.13677 9.6613 4.28229 9.69729 4.4319C9.74226 4.61994 9.60001 4.77364 9.40954 4.74993C9.28196 4.73356 9.15853 4.68616 9.03345 4.65018C8.94026 4.62402 8.84787 4.59459 8.73422 4.56107C8.76287 4.62566 8.77919 4.66408 8.79636 4.70169C8.94515 5.023 9.09723 5.34185 9.24273 5.66474C9.32204 5.84133 9.31715 5.84378 9.49784 5.80045C10.0243 5.67457 10.5263 5.75059 10.9898 6.01792C11.5548 6.34331 11.9063 6.82976 12.0248 7.47888C12.1352 8.08138 12.0019 8.62917 11.6373 9.11149C11.2408 9.63717 10.7053 9.92088 10.0398 9.94703C9.51336 9.96829 9.04328 9.81621 8.63614 9.48349C8.21592 9.14013 7.96086 8.7019 7.8791 8.16069C7.80958 7.69715 7.88809 7.2655 8.10471 6.85427C8.2282 6.61883 8.3974 6.42017 8.59361 6.24358C8.40479 5.84053 8.21756 5.44322 8.02705 5.03768C7.94369 5.15542 7.87007 5.25924 7.79735 5.36226C7.41307 5.90592 7.03048 6.45122 6.6438 6.99407C6.43043 7.2933 6.21865 7.59413 5.99219 7.88273C5.83197 8.08712 5.63167 8.24899 5.36678 8.30539C5.30304 8.31847 5.2376 8.32256 5.17302 8.32341C4.62528 8.32585 4.07671 8.32585 3.52896 8.3291C3.39243 8.3275 3.32049 8.36509 3.32049 8.36509C3.1161 8.45009 3.09484 8.80412 3.32621 8.90874C3.38916 8.93654 3.46437 8.94637 3.53468 8.94717C3.99332 8.95126 4.45196 8.95047 4.91062 8.94962C4.98909 8.94962 5.07164 8.95616 5.10928 9.02893C5.13788 9.08369 5.1526 9.1622 5.13708 9.22025C5.11252 9.3069 5.03486 9.34942 4.93922 9.34942C4.62773 9.34942 4.31707 9.34857 4.00558 9.35102C3.83799 9.35187 3.70718 9.48349 3.70391 9.6478C3.69983 9.83912 3.81836 9.965 4.01866 9.96909C4.30643 9.97483 4.59503 9.97154 4.88362 9.97399C4.92205 9.97399 4.96208 9.97728 4.99972 9.98626C5.0978 10.0116 5.15994 10.0958 5.1526 10.1858C5.14442 10.2798 5.07574 10.3509 4.97356 10.3607C4.89914 10.368 4.82312 10.368 4.74791 10.368C3.99823 10.3713 3.24772 10.3713 2.49804 10.3787C2.41057 10.3795 2.31327 10.4007 2.2397 10.4449C2.12933 10.5119 2.0909 10.6599 2.12933 10.7629C2.18982 10.9232 2.29202 10.9951 2.46207 10.9951C5.35126 10.9968 8.23963 10.9976 11.1288 11C11.688 11 12.2096 10.8569 12.6846 10.5708C13.5021 10.0795 14.0172 9.36494 14.2044 8.42149C14.2902 7.98984 14.2804 7.56064 14.188 7.13553C14.0875 6.67278 13.8782 6.25501 13.5921 5.87896L13.5913 5.87812ZM3.47337 2.48452C3.44557 2.50905 3.41614 2.53276 3.38998 2.5581C3.37035 2.57772 3.35318 2.5998 3.3352 2.62105C3.31721 2.59571 3.29923 2.57118 3.29432 2.56383C3.30087 2.4322 3.38426 2.36925 3.47582 2.40277C3.4938 2.4093 3.50606 2.43138 3.52078 2.4461C3.50525 2.45918 3.4889 2.47144 3.47337 2.48452Z" fill="#E77B35"/>
</svg>
