<svg width="33" height="33" viewBox="0 0 33 33" fill="none" xmlns="http://www.w3.org/2000/svg">
<g id="Group 37583">
<rect id="Rectangle 219" width="33" height="33" rx="4" fill="#040A2A"/>
<path id="Vector" d="M22.875 8H10.625C9.92881 8 9.26113 8.27656 8.76884 8.76884C8.27656 9.26113 8 9.92881 8 10.625V11.6487C7.99987 12.0101 8.07435 12.3675 8.21875 12.6987V12.7512C8.34237 13.0321 8.51747 13.2873 8.735 13.5037L14.125 18.8587V24.625C14.1247 24.7737 14.1623 24.92 14.2343 25.0502C14.3062 25.1803 14.4102 25.2899 14.5362 25.3687C14.6755 25.455 14.8362 25.5005 15 25.5C15.137 25.4992 15.2718 25.4662 15.3937 25.4037L18.8937 23.6537C19.038 23.581 19.1594 23.4698 19.2443 23.3323C19.3293 23.1949 19.3745 23.0366 19.375 22.875V18.8587L24.73 13.5037C24.9475 13.2873 25.1226 13.0321 25.2462 12.7512V12.6987C25.4027 12.3701 25.4891 12.0126 25.5 11.6487V10.625C25.5 9.92881 25.2234 9.26113 24.7312 8.76884C24.2389 8.27656 23.5712 8 22.875 8ZM17.8787 17.8787C17.7977 17.9605 17.7335 18.0575 17.6899 18.1641C17.6464 18.2707 17.6243 18.3848 17.625 18.5V22.3325L15.875 23.2075V18.5C15.8757 18.3848 15.8536 18.2707 15.81 18.1641C15.7665 18.0575 15.7023 17.9605 15.6212 17.8787L10.9837 13.25H22.5162L17.8787 17.8787ZM23.75 11.5H9.75V10.625C9.75 10.3929 9.84219 10.1704 10.0063 10.0063C10.1704 9.84219 10.3929 9.75 10.625 9.75H22.875C23.1071 9.75 23.3296 9.84219 23.4937 10.0063C23.6578 10.1704 23.75 10.3929 23.75 10.625V11.5Z" fill="white"/>
</g>
</svg>
