<svg width="16" height="16" viewBox="0 0 16 16" fill="none" xmlns="http://www.w3.org/2000/svg">
<path d="M8 6C8.50632 6 8.99191 6.21071 9.34993 6.58579C9.70796 6.96086 9.90909 7.46957 9.90909 8C9.90909 8.53043 9.70796 9.03914 9.34993 9.41421C8.99191 9.78929 8.50632 10 8 10C7.49368 10 7.00809 9.78929 6.65007 9.41421C6.29204 9.03914 6.09091 8.53043 6.09091 8C6.09091 7.46957 6.29204 6.96086 6.65007 6.58579C7.00809 6.21071 7.49368 6 8 6ZM8 3C11.1818 3 13.8991 5.07333 15 8C13.8991 10.9267 11.1818 13 8 13C4.81818 13 2.10091 10.9267 1 8C2.10091 5.07333 4.81818 3 8 3ZM2.38727 8C2.90162 9.10021 3.70029 10.0272 4.69249 10.6755C5.68469 11.3238 6.83062 11.6675 8 11.6675C9.16938 11.6675 10.3153 11.3238 11.3075 10.6755C12.2997 10.0272 13.0984 9.10021 13.6127 8C13.0984 6.8998 12.2997 5.97283 11.3075 5.3245C10.3153 4.67616 9.16938 4.33245 8 4.33245C6.83062 4.33245 5.68469 4.67616 4.69249 5.3245C3.70029 5.97283 2.90162 6.8998 2.38727 8Z" fill="#0D3B66"/>
</svg>
