<svg id="Layer_3" data-name="Layer 3" xmlns="http://www.w3.org/2000/svg" viewBox="0 0 250.7 178.25"><defs><style>.cls-1,.cls-2{fill:#d85057;}.cls-2{fill-rule:evenodd;}</style></defs><title>TJ svg logo red</title><path class="cls-1" d="M110.85,173h-34c-2.71,0,2.8-2.68,2.8-2.68l5-1.39,7.91-7.64.92-6.63,5.78-12.57,4.41-3.4V125.46l-4.07-3.4L94.2,108.47v-6.11L87.07,94.2h-8.5L66.34,89.11,63,84H50.38l-2,5.1L33.73,94.2l-7.14-1-8.15,9.17.34,5.43-5.44,13.93-4.75,3.06v12.57l4.41,2,5.78,13.25v7.81l7.81,7.82A15.67,15.67,0,0,1,31.91,170a18,18,0,0,1,4.59,3.12c-8.62,1-31.31-2.42-33.35,3s93.77,2.38,104,1.7S110.85,173,110.85,173ZM56,156.09a24.46,24.46,0,1,1,24.46-24.46A24.46,24.46,0,0,1,56,156.09Z" transform="translate(-3.12 -1)"/><path class="cls-1" d="M50.07,132a6.74,6.74,0,1,1,6.73,6.74A6.73,6.73,0,0,1,50.07,132Z" transform="translate(-3.12 -1)"/><path class="cls-1" d="M125.43,86.51V82.68l-.08-7.75h3.83l.08,7.68v3.92A7.34,7.34,0,0,1,127,92a7.51,7.51,0,0,1-5.35,2.23h-.13a7.48,7.48,0,0,1-4.28-1.33l1.94-3.35a3.47,3.47,0,0,0,2.37.85h.08A3.86,3.86,0,0,0,125.43,86.51Z" transform="translate(-3.12 -1)"/><path class="cls-1" d="M143.18,86.46V74.93H147V86.47a7.71,7.71,0,0,1-15.42,0V74.93h3.86V86.46a3.85,3.85,0,0,0,7.7,0Z" transform="translate(-3.12 -1)"/><path class="cls-1" d="M160.88,85.46V74.88h3.85v19.5l-11.5-10.95V94H149.4V74.53Z" transform="translate(-3.12 -1)"/><path class="cls-1" d="M176,94.12a9.68,9.68,0,0,1,0-19.35v0a9.86,9.86,0,0,1,6.86,2.83l-2.73,2.73a5.63,5.63,0,0,0-4.11-1.7,5.52,5.52,0,0,0-4.09,1.7,5.66,5.66,0,0,0-1.7,4.1,5.81,5.81,0,0,0,9.91,4.09l2.73,2.73A9.63,9.63,0,0,1,176,94.12Z" transform="translate(-3.12 -1)"/><path class="cls-1" d="M197.06,74.93v3.79h-4.68V94h-3.84V78.72h-4.69V74.93Z" transform="translate(-3.12 -1)"/><path class="cls-1" d="M198.72,74.93h3.83V94h-3.83Z" transform="translate(-3.12 -1)"/><path class="cls-1" d="M220.71,77.62a9.62,9.62,0,1,1-6.83-2.85A9.35,9.35,0,0,1,220.71,77.62Zm-10.94,2.72a5.81,5.81,0,0,0,0,8.21,5.81,5.81,0,1,0,0-8.21Z" transform="translate(-3.12 -1)"/><path class="cls-1" d="M236.67,85.46V74.88h3.85v19.5L229,83.43V94h-3.83V74.53Z" transform="translate(-3.12 -1)"/><path class="cls-1" d="M88.1,44.51h18.35v5.7h-6l.22,17.8H94.18l-.07-17.8h-6Z" transform="translate(-3.12 -1)"/><path class="cls-1" d="M108.5,68l0-23.5h8.6a14.06,14.06,0,0,1,4.09.6,8.38,8.38,0,0,1,3,1.83,6.77,6.77,0,0,1,2.42,5.46V53A7.54,7.54,0,0,1,125,57.56a5.59,5.59,0,0,1-2.48,2L128.21,68h-7l-7-9.18V68Zm12.15-15.12a2.51,2.51,0,0,0-.92-1.9,5.39,5.39,0,0,0-3-.78h-2.51v5.47h3.38A3,3,0,0,0,120.65,52.89Z" transform="translate(-3.12 -1)"/><path class="cls-1" d="M128.79,68l11.34-23.47h1.36L152.84,68H146.6l-1.74-3.57h-8.1L135,68Zm10.51-8.25h3l-1.5-3.18Z" transform="translate(-3.12 -1)"/><path class="cls-1" d="M165.53,44.39A13,13,0,0,1,174,48l.38.36-4.13,4.09-.39-.36a7.13,7.13,0,0,0-5-2,7.27,7.27,0,0,0-5,1.8,5.56,5.56,0,0,0,0,8.68,7.37,7.37,0,0,0,5,1.78,7.05,7.05,0,0,0,5-1.95l.39-.36,4.13,4.09-.37.36a12.15,12.15,0,0,1-4,2.66,14.45,14.45,0,0,1-14.57-2.51,11.57,11.57,0,0,1,0-16.87,13.65,13.65,0,0,1,9.39-3.51h.7Z" transform="translate(-3.12 -1)"/><path class="cls-1" d="M175.59,44.51h18.34v5.7h-6l.22,17.8h-6.49l-.07-17.8h-6Z" transform="translate(-3.12 -1)"/><path class="cls-1" d="M205.33,44.32a12.37,12.37,0,0,1,8.86,3.51,11.53,11.53,0,0,1,0,16.87,13,13,0,0,1-17.71,0,11.57,11.57,0,0,1,0-16.87A12.35,12.35,0,0,1,205.33,44.32Zm0,5.79a6.1,6.1,0,0,0-4.52,1.8,5.58,5.58,0,0,0,0,8.67,6.61,6.61,0,0,0,9,0,5.46,5.46,0,0,0,2.08-4.33,5.52,5.52,0,0,0-2.08-4.34A6.18,6.18,0,0,0,205.33,50.11Z" transform="translate(-3.12 -1)"/><path class="cls-1" d="M219.91,68V44.51h8.59a14.06,14.06,0,0,1,4.09.6,8.38,8.38,0,0,1,3,1.83A6.77,6.77,0,0,1,238,52.4V53a7.54,7.54,0,0,1-1.58,4.57,5.62,5.62,0,0,1-2.47,2L239.63,68h-7l-7-9.18V68Zm12.15-15.12a2.48,2.48,0,0,0-.92-1.9,5.39,5.39,0,0,0-3-.78h-2.51v5.47H229A3,3,0,0,0,232.06,52.89Z" transform="translate(-3.12 -1)"/><path class="cls-1" d="M187.75,39V5.6a5.4,5.4,0,0,0-4.31-1.75,1.84,1.84,0,0,1-1-2.32c.32-1.28,8.16-.46,8.2,4.91s0,32.56,0,32.56Z" transform="translate(-3.12 -1)"/><path class="cls-1" d="M149.54,28.05l9.74,18.19,3.31-.86-9.89-18.6,5-2.91s3-4.08-2.27-3c-4.4,2.17-12.61,5.77-12.61,5.77s-2.8,3.65,1.43,3.25Z" transform="translate(-3.12 -1)"/><path class="cls-1" d="M125.18,24.12c.63,5,1.32,9,1.32,9s1.32,3,5.28,1.94c4.95-1,5.93,1.13,5.57,3.66-.42.79-6-.56-6.5,1.24-4.26,14.39-4.52,15.16-4.52,15.16l-2.06-7.43s2.88-8.35,2.46-8.54c-1.29-.57-4.47-.42-5.32-9.11-.46-4.74-.22-6.68,1.48-6.83S125.12,23.66,125.18,24.12Z" transform="translate(-3.12 -1)"/><path class="cls-1" d="M253.82,62.59c0,.91-1.16,1.65-2.59,1.65h0c-1.44,0-2.6-.74-2.6-1.65v-9c0-.91,1.16-1.65,2.6-1.65h0c1.43,0,2.59.74,2.59,1.65Z" transform="translate(-3.12 -1)"/><path class="cls-1" d="M246,96.05a1.27,1.27,0,0,1-1.27-1.28V50.27c0-3.39-1-6-2.91-7.78-3.46-3.18-8.93-2.75-9-2.75h-.11l-50.73,0a1.28,1.28,0,0,1,0-2.55h0l50.68,0c.72-.05,6.73-.37,10.85,3.4,2.49,2.28,3.75,5.53,3.75,9.67v44.5A1.27,1.27,0,0,1,246,96.05Z" transform="translate(-3.12 -1)"/><path class="cls-1" d="M247.46,173.13c-2.26-.31-13.69-.19-13.45-2.61s6.54-6.05,6.54-9.2.48-9.2,4.6-12.59a11.77,11.77,0,0,0,2.91-13.56c-1.94-3.87-8-8.47-7-14,1.46-9.44-6.29-12.59-8.95-12.35s-9.2,1.21-13.08-4.84-15-5.81-18.4-1.21-9,5.48-14.28,6c-4.45.48-8.23,8.48-8.23,13.08s-7.75,12.59-7.75,15.73,1.45,9.93,5.33,13.08,1.93,6.78,2.9,9.92,5.33,3.39,6.78,7.51S173.49,172,173.49,172c-22.28,3.15,1.71,4.74,1.71,4.74,31.94,1.13,41.7,1.23,67.4.14C259.82,176.12,251.82,173.73,247.46,173.13Zm-36.93-12.78a20,20,0,1,1,20-20A20,20,0,0,1,210.53,160.35Z" transform="translate(-3.12 -1)"/><path class="cls-2" d="M207.51,144.69l.62-1a74.16,74.16,0,0,1,4.53-6.56c.32-.41.67-.8,1-1.2s.55-.65.84-1c.61-.69,1.24-1.38,1.86-2.06a2.32,2.32,0,0,1,.86-.7,3.12,3.12,0,0,1,2.19,0l.13.07a.65.65,0,0,1,.22,1c-.2.25-.44.48-.67.72a37,37,0,0,0-3,3.41c-1,1.3-2,2.62-2.9,4s-1.63,2.55-2.42,3.84c-.56.91-1.1,1.85-1.62,2.78a1.75,1.75,0,0,1-1,.85,2.74,2.74,0,0,1-2,.06,1,1,0,0,1-.51-.46l-3.74-6.37a.82.82,0,0,1,.24-1.22,2.93,2.93,0,0,1,2.45-.46,1.09,1.09,0,0,1,.73.56c.66,1.16,1.34,2.32,2,3.47C207.41,144.54,207.45,144.61,207.51,144.69Z" transform="translate(-3.12 -1)"/><path class="cls-1" d="M115.1,145.33a3.39,3.39,0,0,1-3.34-2.89,50.44,50.44,0,0,1-.24-6.2,120.33,120.33,0,0,0-1.06-17.59C108.74,107.41,97.39,93.11,93,89A52.66,52.66,0,0,0,39,79.37C22.38,85.51,11.32,99,11.21,99.18a3.39,3.39,0,0,1-5.28-4.26c.5-.61,12.36-15.13,30.72-21.91,25.66-9.47,48.27-.51,60.88,11,4.5,4.12,17.52,19.74,19.64,33.58a126.48,126.48,0,0,1,1.13,18.57c0,2.25,0,4.37.16,5.23a3.4,3.4,0,0,1-2.84,3.87A4.55,4.55,0,0,1,115.1,145.33Z" transform="translate(-3.12 -1)"/></svg>