<svg width="18" height="16" viewBox="0 0 18 16" fill="none" xmlns="http://www.w3.org/2000/svg">
<path d="M16.0111 14.1518C15.5775 14.0923 13.3844 14.1153 13.4305 13.651C13.4765 13.1867 14.6853 12.4902 14.6853 11.8858C14.6853 11.2814 14.7774 10.1206 15.5679 9.47016C15.9244 9.15147 16.1706 8.72782 16.271 8.26025C16.3713 7.79268 16.3206 7.30532 16.1262 6.8684C15.754 6.12586 14.5913 5.24325 14.7831 4.18221C15.0633 2.37095 13.5763 1.76656 13.0659 1.81261C12.5555 1.85866 11.3007 2.04477 10.5562 0.883958C9.81178 -0.276858 7.67818 -0.23081 7.02582 0.651794C6.37346 1.5344 5.29899 1.70324 4.28591 1.80302C3.43209 1.89511 2.70682 3.43008 2.70682 4.31268C2.70682 5.19529 1.21982 6.72833 1.21982 7.33081C1.21982 7.93328 1.49803 9.23608 2.24249 9.84047C2.98695 10.4449 2.6128 11.1414 2.79892 11.7438C2.98503 12.3463 3.82159 12.3943 4.0998 13.1848C4.37801 13.9753 1.81846 13.935 1.81846 13.935C-2.45641 14.5394 2.14656 14.8445 2.14656 14.8445C8.2749 15.0613 10.1476 15.0805 15.0786 14.8713C18.3826 14.7255 16.8477 14.2669 16.0111 14.1518ZM8.92534 11.6997C8.16637 11.6997 7.42445 11.4746 6.79339 11.053C6.16233 10.6313 5.67048 10.032 5.38004 9.3308C5.08959 8.6296 5.0136 7.85803 5.16167 7.11365C5.30973 6.36926 5.67521 5.6855 6.21188 5.14883C6.74855 4.61216 7.43231 4.24668 8.1767 4.09861C8.92108 3.95054 9.69266 4.02654 10.3939 4.31698C11.095 4.60743 11.6944 5.09928 12.116 5.73034C12.5377 6.3614 12.7627 7.10332 12.7627 7.86229C12.7627 8.88003 12.3585 9.85609 11.6388 10.5757C10.9191 11.2954 9.94308 11.6997 8.92534 11.6997Z" fill="#D85057"/>
<path fill-rule="evenodd" clip-rule="evenodd" d="M8.34441 8.69616L8.46337 8.50429C8.73032 8.06945 9.02047 7.64929 9.33255 7.24562C9.39395 7.16695 9.4611 7.09212 9.52442 7.01537C9.58773 6.93862 9.62995 6.89065 9.68559 6.8235C9.80263 6.69111 9.92351 6.55872 10.0425 6.42825C10.0858 6.3708 10.1424 6.32471 10.2075 6.29394C10.3429 6.24317 10.4922 6.24317 10.6277 6.29394L10.6526 6.30737C10.6697 6.31556 10.6847 6.32753 10.6964 6.34237C10.7082 6.35721 10.7164 6.37453 10.7205 6.39302C10.7245 6.41151 10.7243 6.43069 10.7199 6.44909C10.7155 6.46749 10.7069 6.48464 10.6948 6.49924C10.6565 6.54721 10.6104 6.59134 10.5663 6.63739C10.3612 6.84349 10.169 7.06199 9.99066 7.29166C9.79879 7.5411 9.60692 7.79436 9.43424 8.05915C9.26155 8.32393 9.12149 8.54842 8.96991 8.79593C8.86246 8.97053 8.75885 9.15089 8.65908 9.32933C8.6187 9.40653 8.5499 9.465 8.46721 9.49242C8.34532 9.54449 8.20826 9.5486 8.08347 9.50393C8.04145 9.48699 8.00679 9.45572 7.98562 9.41567L7.26802 8.19346C7.25402 8.17565 7.24403 8.15503 7.23874 8.13301C7.23344 8.11098 7.23296 8.08808 7.23733 8.06585C7.24171 8.04363 7.25083 8.0226 7.26407 8.00423C7.27731 7.98585 7.29437 7.97055 7.31407 7.95938C7.38111 7.911 7.458 7.87801 7.53926 7.86276C7.62051 7.8475 7.70413 7.85036 7.78415 7.87111C7.81392 7.87773 7.84188 7.89077 7.86608 7.90934C7.89027 7.9279 7.91012 7.95152 7.92422 7.97856C8.05085 8.20113 8.18133 8.4237 8.30796 8.64435C8.32523 8.66738 8.3329 8.68081 8.34441 8.69616Z" fill="#D85057"/>
</svg>
