<svg width="18" height="14" viewBox="0 0 18 14" fill="none" xmlns="http://www.w3.org/2000/svg">
<path d="M12.503 1.57812V9.21035L10.6836 9.71812H13.0743V1.57812H12.503Z" fill="#006DB7"/>
<path d="M3.09128 9.06582C2.69676 9.05963 2.30224 9.05334 1.90799 9.04799C1.58181 9.04358 1.39549 8.96838 1.39882 8.73962C1.40852 8.07409 1.38236 7.4034 1.41748 6.7418C1.42313 6.63549 1.64508 6.49082 1.81128 6.49044C3.06204 6.48738 4.32473 6.51858 5.58182 6.53326C5.98976 6.53799 6.07789 6.67602 5.9833 6.85554C5.62459 7.53639 5.26245 8.21655 4.85909 8.8828C4.79562 8.98766 4.53405 9.06213 4.3264 9.07545C3.92906 9.10089 3.50459 9.0723 3.09128 9.06582ZM5.41696 6.76824C4.16805 6.74963 2.93131 6.73118 1.65626 6.71213C1.84108 6.99479 2.16113 6.95335 2.43881 6.95668C4.31642 6.97928 5.38103 7.01736 5.40599 6.93205C5.42288 6.87439 5.42116 6.81431 5.42116 6.81431C5.41973 6.79895 5.41833 6.78359 5.41696 6.76824ZM1.69102 7.18179C2.0287 7.40684 4.1128 7.47545 4.96221 7.45095C5.21967 7.4435 5.26243 7.36295 5.33208 7.23614L1.69102 7.18179ZM1.80025 7.67172C1.79505 7.74533 1.84387 7.80754 1.92424 7.82486C2.87061 8.02875 3.7692 7.87784 4.6948 7.93376C4.81082 7.94075 4.90065 7.93838 4.96006 7.78858C4.9727 7.76263 4.96831 7.73595 4.95298 7.7246C4.94483 7.71855 4.93502 7.71787 4.92792 7.71841C3.88539 7.70284 2.8428 7.6873 1.80025 7.67172ZM1.75822 8.16018C2.07061 8.39039 3.4423 8.51209 4.45393 8.42081C4.58114 8.40933 4.77919 8.43289 4.77034 8.27061C4.76451 8.22405 4.75509 8.21238 4.6881 8.20391C3.7354 8.18968 2.78272 8.17548 1.75822 8.16018ZM4.47526 8.70274C3.60388 8.68973 2.73942 8.67685 1.81957 8.6631C2.33832 8.97924 4.36572 8.98253 4.47526 8.70274Z" fill="#006DB7"/>
<path d="M2.77849 11.646C2.48759 11.6414 2.19663 11.6367 1.90599 11.6327C1.66556 11.6294 1.52 11.5731 1.49672 11.4017C1.42891 10.9032 1.33413 10.4008 1.28545 9.90526C1.27764 9.82562 1.42461 9.71726 1.54683 9.71697C2.46662 9.71457 3.399 9.73789 4.32543 9.74881C4.62608 9.75233 4.70644 9.85569 4.65706 9.99019C4.46988 10.5002 4.28006 11.0097 4.05839 11.5088C4.02351 11.5873 3.83945 11.6431 3.68819 11.6531C3.39873 11.6722 3.08329 11.6508 2.77849 11.646ZM4.23062 9.92483C3.30976 9.91093 2.39788 9.89719 1.45775 9.88301C1.62557 10.0947 1.85633 10.0637 2.06095 10.0661C3.399 10.0824 4.21172 10.1301 4.24001 10.0493C4.26241 9.98548 4.24079 9.94132 4.24079 9.94132C4.23697 9.93347 4.23283 9.92774 4.23062 9.92483ZM1.53622 10.2348C1.80997 10.4034 3.35086 10.4547 3.97298 10.4362C4.16151 10.4307 4.18391 10.3703 4.22089 10.2753L1.53622 10.2348ZM1.67175 10.6018C1.67619 10.6569 1.71912 10.7035 1.7802 10.7165C2.49937 10.8692 3.14339 10.7561 3.83063 10.7979C3.91679 10.8032 3.98258 10.8014 4.00945 10.6892C4.01558 10.6707 4.01447 10.6534 4.00619 10.6454C4.0031 10.6424 3.99896 10.6402 3.99896 10.6402C3.98892 10.635 3.97895 10.6365 3.97787 10.6366C3.96502 10.6376 3.02232 10.6231 1.67175 10.6018ZM1.69584 10.9677C1.95157 11.1401 2.97436 11.2312 3.70828 11.1628C3.80058 11.1541 3.94893 11.1718 3.92414 11.0502C3.91462 11.0154 3.90636 11.0066 3.85612 11.0003C3.15367 10.9897 2.45124 10.9791 1.69584 10.9677ZM3.75572 11.3739C3.11322 11.3642 2.47584 11.3546 1.79762 11.3444C2.21483 11.5812 3.70667 11.5835 3.75572 11.3739Z" fill="#006DB7"/>
<path d="M0.0546875 9.43079C0.0546875 9.43079 0.271536 8.89328 0.699948 8.78519C0.699948 8.78519 0.990972 6.76508 1.28452 6.16211L0.906222 8.78519L0.669604 9.60536L0.0546875 9.43079Z" fill="#006DB7"/>
<path d="M0 9.60547L0.667791 9.82761L0.745753 11.2477L0 11.1367V9.6372" fill="#006DB7"/>
<path d="M5.42188 11.1856L6.16951 9.71693L7.72454 9.53711L7.52356 10.7536C7.51242 10.7968 7.48564 10.8747 7.41773 10.9451C7.28759 11.0798 7.11175 11.0776 7.07929 11.0766L5.42188 11.1856Z" fill="#006DB7"/>
<path d="M6.46875 9.42687C6.46875 9.42687 7.44197 8.50128 9.63166 8.07812L7.72229 9.36868L6.46875 9.42687Z" fill="#006DB7"/>
<path d="M5.30078 11.4518V11.3936C5.9903 11.3108 7.3462 11.151 7.3693 11.1452C7.41752 11.1333 7.47346 11.0863 7.52618 11.0354C7.6574 10.9088 7.70572 10.7619 7.72321 10.6888L7.99296 9.45247C7.99296 9.45247 9.19887 8.4105 9.54266 8.25185L9.43694 8.20955L9.63257 8.07733C9.63257 8.07733 9.98168 7.97683 10.0875 8.24131L10.5635 9.87562L10.4048 9.88092L10.2038 9.29912C10.1925 9.26687 10.1617 9.19439 10.0883 9.1558C10.0754 9.14902 10.0626 9.14404 10.0504 9.14041C10.022 9.13482 9.98187 9.12877 9.93351 9.12748C9.86222 9.12557 9.80114 9.13479 9.75421 9.14571C9.65952 9.1665 9.55468 9.19557 9.44482 9.24025C9.26102 9.31496 9.01905 9.44453 8.78631 9.66405C8.63756 9.87498 8.45551 10.1978 8.37375 10.6214C8.34893 10.7499 8.33672 10.8706 8.33242 10.9806C8.02007 10.9727 7.79477 10.967 7.79483 10.967C7.80513 10.9675 7.7362 11.0631 7.67033 11.1146C7.56916 11.1936 7.4629 11.2096 7.41648 11.2137L5.30078 11.4518Z" fill="#006DB7"/>
<path d="M0 11.9798C0.162922 12.0094 0.325843 12.0389 0.488737 12.0686C0.600948 12.3316 0.713157 12.5947 0.825397 12.8578H5.33486C5.60803 12.5676 5.88122 12.2773 6.15436 11.9871C6.67705 11.9706 7.19974 11.954 7.72238 11.9375L7.93132 12.8578C8.13133 12.8678 8.33135 12.8778 8.53139 12.8878C8.53236 12.9836 8.5333 13.0793 8.53426 13.1752H2.68186C2.68186 13.1752 2.5708 13.7305 2.2217 13.8733C2.2217 13.8733 1.21677 14.2541 0.746024 13.5665C0.746024 13.5665 0.650818 13.466 0.545038 13.154C0.41357 13.1489 0.282103 13.1438 0.150635 13.1387C0.100433 12.7524 0.0502316 12.3661 0 11.9798Z" fill="#006DB7"/>
<path d="M11.1268 2.71484H11.5288L11.2643 4.43909L10.9258 4.5343L11.1268 2.71484Z" fill="#006DB7"/>
<path d="M9.18747 2.61914L8.33594 5.09444L10.4833 4.68191L10.8641 2.69318L9.18747 2.61914ZM10.3145 4.54184L9.97205 4.62174L10.2545 2.81316L10.6561 2.83118L10.3145 4.54184Z" fill="#006DB7"/>
<path d="M10.1499 10.1682C10.2337 10.4682 10.3117 10.8652 10.3178 11.3342C10.3218 11.6473 10.293 11.9249 10.2533 12.1574C10.2524 12.1579 10.1694 12.3894 9.88281 13.1942C9.95322 13.2018 10.0574 13.2112 10.1847 13.2163C10.2625 13.2195 10.3149 13.2196 10.4182 13.2205C10.5117 13.2213 10.6461 13.2227 10.8123 13.2253C10.8206 13.1867 10.8301 13.1469 10.841 13.1058C10.8506 13.0694 10.8606 13.0343 10.8709 13.0006C12.1936 12.917 13.5163 12.8334 14.839 12.7498V10.1426C13.276 10.1511 11.7129 10.1596 10.1499 10.1682ZM11.0149 10.5759H14.0456V10.7346H10.9594C10.7135 10.7425 10.5548 11.1075 10.5548 11.1075L10.4517 11.0678C10.6421 10.5561 11.0149 10.5759 11.0149 10.5759ZM11.0149 11.3078H14.0456V11.4665H10.9594C10.7135 11.4744 10.5548 11.8394 10.5548 11.8394L10.4517 11.7997C10.6421 11.288 11.0149 11.3078 11.0149 11.3078ZM14.1249 12.1469H11.0388C10.7928 12.1548 10.6342 12.5198 10.6342 12.5198L10.531 12.4801C10.7214 11.9684 11.0943 11.9882 11.0943 11.9882H14.125L14.1249 12.1469Z" fill="#006DB7"/>
<path d="M12.2468 1.58789C12.2468 2.64043 12.2468 3.69297 12.2468 4.74551C12.1941 4.94407 12.0901 5.18144 11.866 5.24649C11.8609 5.24797 11.8574 5.2494 11.8447 5.25201C11.613 5.2998 11.3747 5.34538 11.1301 5.38815C10.9494 5.41977 10.7716 5.44879 10.5966 5.47536C8.45451 5.71338 7.56592 6.30048 7.56592 6.30048C6.39174 6.87172 5.29688 9.83889 5.29688 9.83889L6.95768 8.5219C7.57122 8.0882 9.29547 7.55927 9.29547 7.55927C10.0994 7.28422 10.3004 7.62274 10.3004 7.62274C10.5966 7.90836 11.0197 9.11427 11.0197 9.11427L13.0719 8.55363V1.58789H12.2468ZM11.4005 8.31745C10.9456 6.70607 9.89839 6.86403 9.89839 6.86403C9.2108 6.85633 7.33845 7.68347 7.33845 7.68347C8.1371 7.1782 9.45409 6.72385 9.45409 6.72385C9.80315 6.59715 10.2263 6.58613 10.2263 6.58613C10.66 6.53325 10.9245 6.8598 10.9245 6.8598L11.7178 8.00362L12.6805 8.06951L11.4005 8.31745Z" fill="#006DB7"/>
<path d="M8.51953 12.9296V11.4592C8.65734 10.931 8.79512 10.4028 8.93292 9.87466C9.24116 9.7276 9.54942 9.58052 9.85766 9.43346C9.85766 9.43346 9.89851 9.41308 9.97379 9.40312C10.0161 9.39756 10.0474 9.39939 10.0653 9.41905C10.0705 9.4248 10.0735 9.43085 10.0752 9.43526C10.2001 9.7726 10.3251 10.1099 10.4501 10.4472V10.8069L9.92801 9.87937L9.62494 9.72419L9.0643 9.99534L8.63061 11.3957L8.51953 12.9296Z" fill="#006DB7"/>
<path d="M4.07422 4.46349L4.36777 4.58249L4.71686 3.01953H4.32017L4.07422 4.46349Z" fill="#006DB7"/>
<path d="M2.57722 2.82091L1.69922 5.53952L7.73939 5.40201L8.90302 2.48242L2.57722 2.82091ZM2.08731 5.40199H2.07409L2.78284 3.13821H3.02613L2.52789 5.31735L2.08731 5.40199ZM3.65027 5.05293L2.53955 5.31738L3.18483 3.02189H4.02052L3.65027 5.05293ZM4.36759 4.5848L4.07404 4.46582L4.31999 3.02187H4.71665L4.36759 4.5848Z" fill="#006DB7"/>
<path d="M12.3113 0.00485983V0.939252C12.2536 0.937089 11.7624 0.919455 11.3982 0.939252C11.2369 0.948025 11.118 0.962747 11.0037 0.983805C11.0037 0.983805 10.9039 1.00222 10.8003 1.0292C10.5857 1.08508 9.73453 1.4845 8.60938 2.08347C8.7258 1.87554 8.89214 1.63039 9.13021 1.38362C9.64822 0.846569 10.2404 0.576875 10.603 0.445047L10.6736 0.147652C10.918 0.0976909 11.1857 0.0560235 11.4742 0.0302158C11.7748 0.00338868 12.0551 -0.00247156 12.3113 0.00485983Z" fill="#006DB7"/>
<path d="M6.34921 2.31243L3.69404 2.17492C3.86235 1.9411 4.13723 1.61104 4.54933 1.31572C5.22126 0.834197 5.93724 0.674759 8.15436 0.508563C8.82228 0.45848 9.65783 0.405455 10.625 0.366972C11.0878 0.248812 11.5505 0.130684 12.0134 0.0125268C11.6444 0.00212944 11.115 -0.00631002 10.4787 0.00639755C8.44549 0.047016 7.02444 0.269752 6.64206 0.332241C3.90161 0.78012 3.33393 1.35989 3.08835 1.68186C2.85964 1.98171 2.73644 2.27745 2.66797 2.48171L6.34921 2.31243Z" fill="#006DB7"/>
<path d="M15.4252 10.2179C15.361 10.1856 15.2949 10.1717 15.2286 10.1768C14.9599 10.199 14.7147 10.5304 14.5853 11.0465C14.4558 11.5626 14.4618 12.1851 14.6007 12.68C14.7583 13.2406 15.0573 13.5346 15.3584 13.4247C15.6594 13.3149 15.9032 12.823 15.9761 12.1782C16.0239 11.7555 15.9927 11.3114 15.8894 10.9438C15.7861 10.5762 15.6191 10.315 15.4252 10.2179ZM14.9101 12.3351C14.8822 12.2284 14.8631 12.1103 14.8539 11.9867C14.8539 11.9861 14.8537 11.9856 14.8537 11.9849C14.8272 11.6303 14.8832 11.2664 15.001 11.0274C15.0015 11.0261 15.002 11.0248 15.0025 11.0236C15.0029 11.0231 15.0032 11.023 15.0036 11.0225C15.0382 10.9515 15.0776 10.8947 15.1202 10.8544L15.1205 10.8538C15.1207 10.8536 15.121 10.8538 15.1212 10.8533C15.266 10.7123 15.4308 10.7592 15.5544 10.9767C15.5546 10.977 15.555 10.9771 15.5552 10.9774C15.5558 10.9784 15.5561 10.9799 15.5568 10.981C15.642 11.1319 15.6993 11.3525 15.7176 11.5993C15.7176 11.5999 15.7178 11.6004 15.7178 11.601C15.7443 11.9557 15.6883 12.3195 15.5704 12.5586C15.57 12.5599 15.5695 12.5612 15.5689 12.5624C15.5686 12.5629 15.5682 12.563 15.5679 12.5635C15.4699 12.7594 15.3405 12.847 15.214 12.8031C15.0874 12.7591 14.9764 12.5881 14.9101 12.3351Z" fill="#006DB7"/>
<path d="M15.3947 10.2096C15.3351 10.2448 15.239 10.313 15.1468 10.4437C14.6457 11.1548 14.7977 13.0453 15.2461 13.3436C15.3165 13.3905 15.3838 13.3913 15.429 13.3852C15.3681 13.4073 15.2782 13.4341 15.1682 13.4457C15.0702 13.456 14.8934 13.4399 14.6719 13.3754C14.6059 13.3562 14.5104 13.3146 14.4168 13.2129C13.9395 12.6939 13.903 11.0329 14.4017 10.4213C14.5224 10.2734 14.6585 10.2065 14.78 10.1778C14.862 10.1543 14.9667 10.1356 15.088 10.1418C15.2097 10.148 15.3138 10.1775 15.3947 10.2096Z" fill="#006DB7"/>
<path d="M15.3171 10.2104C15.2272 10.246 15.0825 10.3151 14.9437 10.4474C14.1469 11.2071 14.3786 13.09 15.0932 13.3821C15.1986 13.4252 15.2983 13.4269 15.3635 13.4225C15.2948 13.4427 15.1912 13.4691 15.0632 13.4857C14.6871 13.5343 14.3832 13.4618 14.2285 13.4142C14.0863 13.3705 13.9305 13.3128 13.8442 13.2498C13.1254 12.7246 13.0704 11.0436 13.8215 10.4247C14.0033 10.2749 14.2084 10.2073 14.3912 10.1783C14.5147 10.1544 14.6724 10.1356 14.8551 10.1418C15.0384 10.1481 15.1951 10.178 15.3171 10.2104Z" fill="#006DB7"/>
<mask id="mask0_7548_4295" style="mask-type:luminance" maskUnits="userSpaceOnUse" x="15" y="9" width="3" height="5">
<path d="M15.62 9.96409C15.6446 9.95817 15.6746 9.95645 15.7107 9.96409L17.1372 10.0336L16.9283 13.8101L15.3672 13.2761L15.9442 11.9904L15.7688 11.048C15.6349 10.8708 15.5011 10.6936 15.3672 10.5164C15.3733 10.2226 15.4715 9.99978 15.62 9.96409Z" fill="white"/>
</mask>
<g mask="url(#mask0_7548_4295)">
<path d="M16.5022 10.2531C16.4423 10.2222 16.3807 10.209 16.319 10.2139C16.0686 10.235 15.8402 10.5513 15.7196 11.0438C15.5989 11.5363 15.6044 12.1304 15.734 12.6027C15.8808 13.1377 16.1594 13.4182 16.4399 13.3134C16.7204 13.2085 16.9476 12.7391 17.0154 12.1238C17.06 11.7204 17.0309 11.2966 16.9346 10.9458C16.8384 10.595 16.6828 10.3458 16.5022 10.2531ZM16.2195 12.214C16.2002 12.1148 16.1871 12.0048 16.1808 11.8899C16.1808 11.8893 16.1806 11.8888 16.1806 11.8882C16.1624 11.5583 16.201 11.2198 16.2822 10.9974C16.2825 10.9961 16.2829 10.9949 16.2832 10.9938C16.2834 10.9933 16.2837 10.9933 16.2839 10.9928C16.3077 10.9268 16.3349 10.8739 16.3643 10.8364L16.3645 10.8358C16.3647 10.8356 16.3649 10.8358 16.365 10.8354C16.4648 10.7041 16.5785 10.7478 16.6637 10.9501C16.6638 10.9504 16.664 10.9505 16.6642 10.9508C16.6646 10.9517 16.6649 10.9532 16.6653 10.9541C16.7241 11.0945 16.7636 11.2997 16.7762 11.5294C16.7762 11.5299 16.7763 11.5304 16.7763 11.531C16.7946 11.861 16.756 12.1995 16.6747 12.4219C16.6744 12.4231 16.6741 12.4243 16.6737 12.4254C16.6735 12.4259 16.6732 12.426 16.673 12.4265C16.6054 12.6088 16.5163 12.6902 16.429 12.6494C16.3418 12.6085 16.2652 12.4494 16.2195 12.214Z" fill="#006DB7"/>
<path d="M16.4797 10.2436C16.4241 10.2772 16.3346 10.3423 16.2487 10.4671C15.7818 11.1456 15.9235 12.9497 16.3412 13.2345C16.4068 13.2791 16.4695 13.28 16.5116 13.2741C16.4801 13.2958 16.4303 13.3235 16.365 13.332C16.3629 13.3322 16.3541 13.3334 16.3437 13.334C16.0905 13.3491 15.9773 13.3243 15.9773 13.3243C15.7644 13.2776 15.6192 13.1539 15.5708 13.1117C15.5698 13.1108 15.569 13.1101 15.5685 13.1097C15.0567 12.6603 15.3429 10.7113 15.5545 10.4456C15.6669 10.3045 15.7938 10.2406 15.9069 10.2132C15.9833 10.1907 16.0808 10.173 16.1939 10.1789C16.3074 10.1849 16.4043 10.213 16.4797 10.2436Z" fill="#006DB7"/>
</g>
<path d="M16.589 10.3107C16.2756 10.2529 16.0208 10.2392 15.8422 10.238C15.7038 10.237 15.6275 10.2436 15.4511 10.2416C15.1902 10.2387 14.9776 10.22 14.8359 10.2042C14.8359 10.1834 14.8359 10.1627 14.8359 10.1419C15.5817 10.1215 16.1307 10.1202 16.2573 10.1347C16.3331 10.1433 16.3968 10.1714 16.3968 10.1714C16.4253 10.1854 16.4574 10.2036 16.4911 10.2272C16.5314 10.2556 16.5638 10.2848 16.589 10.3107Z" fill="#006DB7"/>
<path d="M9.36516 11.9787C9.37183 11.7154 9.52289 11.5005 9.71545 11.4613C9.69249 11.4554 9.66879 11.4519 9.64453 11.4513C9.41916 11.4456 9.23036 11.6801 9.22289 11.9751C9.21541 12.2701 9.39205 12.5139 9.61742 12.5196C9.64171 12.5202 9.66554 12.5178 9.68878 12.5131C9.49842 12.4642 9.35846 12.2419 9.36516 11.9787Z" fill="#006DB7"/>
<path d="M15.1896 11.7682C15.1941 11.5278 15.0522 11.3255 14.8615 11.2817C14.8847 11.2772 14.9085 11.275 14.9328 11.2754C15.1582 11.2796 15.3369 11.5014 15.3319 11.7708C15.3269 12.0403 15.1402 12.2553 14.9148 12.2512C14.8905 12.2507 14.8668 12.2476 14.8438 12.2423C15.036 12.2056 15.1852 12.0087 15.1896 11.7682Z" fill="#006DB7"/>
<path d="M16.5054 11.7448C16.4993 11.5045 16.3487 11.3085 16.1562 11.2731C16.1792 11.2677 16.2029 11.2644 16.2272 11.2638C16.4525 11.2581 16.6408 11.4718 16.6477 11.7412C16.6545 12.0106 16.4773 12.2336 16.2519 12.2394C16.2277 12.24 16.2038 12.2379 16.1806 12.2336C16.3711 12.1885 16.5115 11.9852 16.5054 11.7448Z" fill="#006DB7"/>
<path d="M13.0768 0.00195312H12.25V1.68087H13.0768V0.00195312Z" fill="#006DB7"/>
<path d="M10.2419 10.915C10.1414 10.4824 9.96022 10.1737 9.73823 10.0569C9.7193 10.0469 9.70015 10.0384 9.68078 10.0312C9.64902 10.0584 9.60965 10.0937 9.56643 10.137C9.56643 10.137 9.46256 10.229 9.38495 10.3462C8.83743 11.1733 8.88514 13.3918 9.3225 13.7475C9.3911 13.8033 9.45926 13.8052 9.50538 13.7986C9.49634 13.8041 9.48351 13.8115 9.468 13.8193C9.47184 13.818 9.47569 13.8171 9.47956 13.8157C9.83887 13.6915 10.1525 13.1184 10.2743 12.3637C10.3541 11.8687 10.3425 11.3476 10.2419 10.915ZM9.79775 13.0871C9.79721 13.0889 9.79664 13.0906 9.79605 13.0922C9.79568 13.0929 9.79533 13.093 9.79495 13.0936C9.68611 13.353 9.55185 13.4677 9.42757 13.4073C9.30327 13.3468 9.20139 13.1175 9.14884 12.7796C9.12668 12.6372 9.11407 12.4795 9.11154 12.3149C9.11157 12.3141 9.11143 12.3134 9.11146 12.3126C9.10425 11.84 9.18009 11.3564 9.31112 11.04C9.31166 11.0382 9.31222 11.0365 9.31284 11.0349C9.31319 11.0342 9.31354 11.0341 9.31392 11.0334C9.3524 10.9395 9.39498 10.8644 9.43978 10.8114L9.44013 10.8106C9.4404 10.8103 9.44064 10.8106 9.44089 10.81C9.59348 10.6244 9.75598 10.6894 9.86781 10.9808C9.86805 10.9813 9.86834 10.9813 9.86859 10.9818C9.86915 10.9831 9.86945 10.9851 9.86998 10.9866C9.94709 11.1887 9.99251 11.4833 9.99733 11.8122C9.9973 11.813 9.99744 11.8137 9.99741 11.8145C10.0046 12.2871 9.92878 12.7707 9.79775 13.0871Z" fill="#006DB7"/>
<path d="M9.53516 10.0059C9.58803 10.013 9.63709 10.0222 9.68071 10.032C9.63311 10.0144 9.5844 10.0057 9.53516 10.0059Z" fill="#006DB7"/>
<path d="M9.32104 13.7482C8.88366 13.3925 8.83595 11.174 9.38346 10.347C9.46108 10.2297 9.56492 10.1377 9.56494 10.1377C9.60819 10.0944 9.64754 10.0591 9.67933 10.032C9.67924 10.0319 9.67914 10.0319 9.67903 10.0319C9.63541 10.022 9.58635 10.0129 9.53348 10.0058C9.47364 9.99776 9.40893 9.99241 9.34086 9.99219C9.23826 9.99187 9.16295 10.0032 9.14375 10.006C9.10637 10.0117 9.06888 10.0195 9.02695 10.0304C9.00132 10.0369 8.97496 10.0456 8.94815 10.0563L8.54646 11.4531L8.52951 12.7209L8.52056 12.9311L8.50221 12.9402L8.25 12.95C8.30059 13.214 8.3799 13.4371 8.48842 13.584C8.57749 13.7045 8.67192 13.7545 8.73773 13.7779C8.93925 13.8495 9.12119 13.8631 9.2364 13.8668C9.28758 13.8684 9.35901 13.8685 9.44693 13.8293C9.45395 13.8261 9.46041 13.823 9.46656 13.8199C9.48206 13.8121 9.49488 13.8048 9.50392 13.7992C9.4578 13.8059 9.38962 13.804 9.32104 13.7482Z" fill="#006DB7"/>
</svg>
