<svg width="16" height="16" viewBox="0 0 16 16" fill="none" xmlns="http://www.w3.org/2000/svg">
<path d="M10.9814 3.60522L12.3934 5.01655M11.8894 2.36188L8.07136 6.17989C7.87409 6.37688 7.73955 6.62787 7.6847 6.90122L7.33203 8.66655L9.09736 8.31322C9.3707 8.25855 9.62136 8.12455 9.8187 7.92722L13.6367 4.10922C13.7514 3.99449 13.8424 3.85828 13.9045 3.70838C13.9666 3.55847 13.9986 3.39781 13.9986 3.23555C13.9986 3.0733 13.9666 2.91263 13.9045 2.76273C13.8424 2.61282 13.7514 2.47662 13.6367 2.36188C13.522 2.24715 13.3858 2.15614 13.2359 2.09405C13.086 2.03196 12.9253 2 12.763 2C12.6008 2 12.4401 2.03196 12.2902 2.09405C12.1403 2.15614 12.0041 2.24715 11.8894 2.36188Z" stroke="white" stroke-width="1.5" stroke-linecap="round" stroke-linejoin="round"/>
<path d="M12.666 9.99967V11.9997C12.666 12.3533 12.5255 12.6924 12.2755 12.9425C12.0254 13.1925 11.6863 13.333 11.3327 13.333H3.99935C3.64573 13.333 3.30659 13.1925 3.05654 12.9425C2.80649 12.6924 2.66602 12.3533 2.66602 11.9997V4.66634C2.66602 4.31272 2.80649 3.97358 3.05654 3.72353C3.30659 3.47348 3.64573 3.33301 3.99935 3.33301H5.99935" stroke="white" stroke-width="1.5" stroke-linecap="round" stroke-linejoin="round"/>
</svg>
